<svg width="22" height="22" viewBox="0 0 22 22" fill="none" xmlns="http://www.w3.org/2000/svg">
<path d="M16.526 5.11618L13.347 0.65918L1.658 9.99718L1.01 9.99018V10.0002H0.5V22.0002H21.5V10.0002H20.538L18.624 4.40118L16.526 5.11618ZM18.425 10.0002H8.397L15.866 7.45418L17.388 6.96718L18.425 10.0002ZM14.55 5.79018L6.84 8.41818L12.946 3.54018L14.55 5.79018ZM2.5 18.1692V13.8292C2.92218 13.6802 3.30565 13.4386 3.62231 13.1221C3.93896 12.8056 4.18077 12.4223 4.33 12.0002H17.67C17.8191 12.4225 18.0609 12.806 18.3775 13.1227C18.6942 13.4393 19.0777 13.6811 19.5 13.8302V18.1702C19.0777 18.3193 18.6942 18.561 18.3775 18.8777C18.0609 19.1944 17.8191 19.5779 17.67 20.0002H4.332C4.18218 19.5779 3.93996 19.1943 3.62302 18.8775C3.30607 18.5608 2.9224 18.3188 2.5 18.1692Z" fill="black"/>
</svg>
